<?xml version="1.0" encoding="utf-8"?><svg viewBox="0 0 51 36" xmlns="http://www.w3.org/2000/svg" xmlns:xlink="http://www.w3.org/1999/xlink"><style>:root>svg{display:none}:root>svg:target{display:block}</style><svg viewBox="0 0 51 8" id="arrow-left" xmlns="http://www.w3.org/2000/svg"><path d="M.646 3.646a.5.5 0 000 .708l3.182 3.182a.5.5 0 10.708-.708L1.707 4l2.829-2.828a.5.5 0 10-.708-.708L.646 3.646zM51 3.5H1v1h50v-1z"/></svg><svg viewBox="0 0 51 8" id="arrow-right" xmlns="http://www.w3.org/2000/svg"><path d="M50.354 3.646a.5.5 0 010 .708l-3.182 3.182a.5.5 0 11-.707-.708L49.293 4l-2.828-2.828a.5.5 0 11.707-.708l3.182 3.182zM0 3.5h50v1H0v-1z"/></svg><svg viewBox="0 0 20 15" id="behance" xmlns="http://www.w3.org/2000/svg"><path d="M19.333 10.227v.682H20v-.682h-.667zM.667.682V0H0v.682h.667zm0 13.636H0V15h.667v-.682zm10-4.09c0 1.265.491 2.479 1.367 3.374a4.615 4.615 0 003.3 1.398v-1.364c-.885 0-1.733-.359-2.358-.998a3.45 3.45 0 01-.976-2.41h-1.333zm4.666-4.773a4.615 4.615 0 00-3.3 1.397 4.828 4.828 0 00-1.366 3.375H12c0-.904.351-1.771.976-2.41a3.296 3.296 0 012.357-.999V5.455zM20 10.227c0-1.266-.492-2.48-1.367-3.375a4.615 4.615 0 00-3.3-1.397v1.363c.884 0 1.732.36 2.357.999.625.639.977 1.506.977 2.41H20zm-1.964 1.997a3.35 3.35 0 01-1.185 1.04 3.27 3.27 0 01-1.518.372V15c.739 0 1.467-.178 2.125-.522a4.692 4.692 0 001.658-1.455l-1.08-.8zM.666 1.364H4V0H.667v1.364zM4 6.818H.667v1.364H4V6.818zM1.333 7.5V.682H0V7.5h1.333zm5.334-3.41c0 .724-.281 1.418-.781 1.93-.5.51-1.179.798-1.886.798v1.364c1.06 0 2.078-.431 2.828-1.198A4.139 4.139 0 008 4.09H6.667zM4 1.365c.707 0 1.386.287 1.886.798.5.512.78 1.206.78 1.929H8a4.139 4.139 0 00-1.172-2.893A3.955 3.955 0 004 0v1.364zM.667 8.182h4.666V6.818H.667v1.364zm4.666 5.454H.667V15h4.666v-1.364zm-4 .682V7.5H0v6.818h1.333zM8 10.91a2.76 2.76 0 01-.781 1.929c-.5.511-1.178.798-1.886.798V15c1.061 0 2.079-.431 2.829-1.198a4.138 4.138 0 001.171-2.893H8zM5.333 8.182c.708 0 1.386.287 1.886.799.5.511.781 1.205.781 1.928h1.333a4.139 4.139 0 00-1.171-2.893 3.955 3.955 0 00-2.829-1.198v1.364zm6 2.727h8V9.545h-8v1.364zM12 2.727h6.667V1.364H12v1.363z"/></svg><svg viewBox="0 0 18 18" id="close" xmlns="http://www.w3.org/2000/svg"><defs><path id="da" d="M691.485 160.07l-1.414 1.415-7.071-7.071-7.071 7.071-1.414-1.414 7.07-7.071-7.07-7.071 1.414-1.415 7.07 7.071 7.072-7.07 1.414 1.414-7.07 7.07z"/></defs><use xlink:href="#da" transform="translate(-674 -144)"/></svg><svg viewBox="0 0 24 24" id="instagram" xmlns="http://www.w3.org/2000/svg"><path d="M12 0C8.74 0 8.333.015 7.053.072 5.775.132 4.905.333 4.14.63c-.789.306-1.459.717-2.126 1.384S.935 3.35.63 4.14C.333 4.905.131 5.775.072 7.053.012 8.333 0 8.74 0 12s.015 3.667.072 4.947c.06 1.277.261 2.148.558 2.913a5.885 5.885 0 001.384 2.126A5.868 5.868 0 004.14 23.37c.766.296 1.636.499 2.913.558C8.333 23.988 8.74 24 12 24s3.667-.015 4.947-.072c1.277-.06 2.148-.262 2.913-.558a5.898 5.898 0 002.126-1.384 5.86 5.86 0 001.384-2.126c.296-.765.499-1.636.558-2.913.06-1.28.072-1.687.072-4.947s-.015-3.667-.072-4.947c-.06-1.277-.262-2.149-.558-2.913a5.89 5.89 0 00-1.384-2.126A5.847 5.847 0 0019.86.63c-.765-.297-1.636-.499-2.913-.558C15.667.012 15.26 0 12 0zm0 2.16c3.203 0 3.585.016 4.85.071 1.17.055 1.805.249 2.227.415.562.217.96.477 1.382.896.419.42.679.819.896 1.381.164.422.36 1.057.413 2.227.057 1.266.07 1.646.07 4.85s-.015 3.585-.074 4.85c-.061 1.17-.256 1.805-.421 2.227a3.81 3.81 0 01-.899 1.382 3.744 3.744 0 01-1.38.896c-.42.164-1.065.36-2.235.413-1.274.057-1.649.07-4.859.07-3.211 0-3.586-.015-4.859-.074-1.171-.061-1.816-.256-2.236-.421a3.716 3.716 0 01-1.379-.899 3.644 3.644 0 01-.9-1.38c-.165-.42-.359-1.065-.42-2.235-.045-1.26-.061-1.649-.061-4.844 0-3.196.016-3.586.061-4.861.061-1.17.255-1.814.42-2.234.21-.57.479-.96.9-1.381.419-.419.81-.689 1.379-.898.42-.166 1.051-.361 2.221-.421 1.275-.045 1.65-.06 4.859-.06l.045.03zm0 3.678a6.162 6.162 0 100 12.324 6.162 6.162 0 100-12.324zM12 16c-2.21 0-4-1.79-4-4s1.79-4 4-4 4 1.79 4 4-1.79 4-4 4zm7.846-10.405a1.441 1.441 0 01-2.88 0 1.44 1.44 0 012.88 0z"/></svg><svg viewBox="0 0 14 18" id="pinterest" xmlns="http://www.w3.org/2000/svg"><path d="M0 6.455c0-.778.136-1.513.404-2.199a5.63 5.63 0 011.121-1.802A7.614 7.614 0 013.17 1.125 7.513 7.513 0 015.171.281 8.57 8.57 0 017.356 0c1.14 0 2.2.241 3.182.721a6.022 6.022 0 012.391 2.094c.614.915.92 1.95.92 3.104 0 .692-.069 1.369-.208 2.031a8.284 8.284 0 01-.646 1.913 6.605 6.605 0 01-1.082 1.617c-.44.475-.974.854-1.568 1.114a4.962 4.962 0 01-2.045.417c-.489 0-.977-.115-1.459-.346-.482-.23-.828-.546-1.036-.951-.073.281-.173.687-.306 1.218-.128.53-.214.872-.252 1.027-.04.154-.114.411-.222.767-.073.263-.167.52-.28.769l-.345.674c-.149.29-.315.57-.498.838-.18.262-.405.575-.672.935l-.149.053-.099-.108c-.107-1.133-.162-1.811-.162-2.035 0-.663.08-1.407.235-2.233.153-.825.395-1.862.72-3.109.325-1.246.511-1.979.561-2.196-.229-.467-.345-1.077-.345-1.827 0-.599.187-1.16.562-1.688.376-.526.851-.789 1.427-.789.441 0 .783.146 1.028.439.246.292.366.66.366 1.109 0 .476-.158 1.165-.476 2.066-.318.902-.476 1.575-.476 2.022 0 .453.162.832.486 1.129.32.297.743.458 1.18.449.395 0 .762-.09 1.103-.271a2.46 2.46 0 00.85-.733 6.124 6.124 0 001.016-2.225c.096-.422.17-.823.216-1.2.05-.379.07-.737.07-1.077 0-1.247-.396-2.219-1.183-2.915-.79-.696-1.82-1.042-3.088-1.042-1.44 0-2.646.466-3.61 1.401-.967.932-1.453 2.117-1.453 3.554 0 .317.048.623.14.919.088.295.185.53.29.704.104.171.202.338.291.492.09.154.137.264.137.33 0 .202-.053.465-.16.79-.11.325-.242.487-.4.487-.015 0-.077-.011-.185-.034a2.21 2.21 0 01-.979-.605 3.17 3.17 0 01-.659-1.022 6.986 6.986 0 01-.352-1.169A4.884 4.884 0 010 6.455z"/></svg><svg viewBox="0 0 32 36" id="play" xmlns="http://www.w3.org/2000/svg"><path d="M30 16.268c1.333.77 1.333 2.694 0 3.464L4.5 34.455c-1.333.77-3-.193-3-1.733V3.278c0-1.54 1.667-2.502 3-1.732L30 16.268z"/></svg></svg>